<!-- Cooked Cat — Idle Pose (2-frame tail flick loop)
     16×16 pixel grid rendered as SVG rects. 
     Frame 1: tail up, Frame 2: tail curved right.
     Use CSS steps(1) animation to swap viewBox or translate. -->
<svg xmlns="http://www.w3.org/2000/svg" viewBox="0 0 32 16" width="64" height="32" shape-rendering="crispEdges">
  <style>
    .f { fill: #09090B; }
    .b { fill: #09090B; }
    .e { fill: #FF0B3A; }
    .w { fill: #F2F2F0; }
    .g { fill: #8A8A93; }
    .n { fill: none; }
  </style>

  <!-- Frame 1: Idle, tail up -->
  <g id="idle-1">
    <!-- Ears -->
    <rect x="3" y="2" width="1" height="1" class="f"/>
    <rect x="4" y="1" width="1" height="1" class="f"/>
    <rect x="7" y="1" width="1" height="1" class="f"/>
    <rect x="8" y="2" width="1" height="1" class="f"/>
    
    <!-- Head -->
    <rect x="3" y="3" width="1" height="1" class="f"/>
    <rect x="4" y="2" width="1" height="1" class="f"/>
    <rect x="5" y="2" width="1" height="1" class="f"/>
    <rect x="6" y="2" width="1" height="1" class="f"/>
    <rect x="7" y="2" width="1" height="1" class="f"/>
    <rect x="4" y="3" width="4" height="1" class="f"/>
    
    <!-- Eyes -->
    <rect x="4" y="3" width="1" height="1" class="e"/>
    <rect x="7" y="3" width="1" height="1" class="e"/>
    
    <!-- Nose -->
    <rect x="5" y="4" width="2" height="1" class="g"/>
    
    <!-- Body -->
    <rect x="3" y="5" width="6" height="1" class="f"/>
    <rect x="2" y="6" width="8" height="1" class="f"/>
    <rect x="2" y="7" width="8" height="1" class="f"/>
    <rect x="2" y="8" width="8" height="1" class="f"/>
    <rect x="3" y="9" width="6" height="1" class="f"/>
    
    <!-- Legs -->
    <rect x="3" y="10" width="2" height="1" class="f"/>
    <rect x="7" y="10" width="2" height="1" class="f"/>
    <rect x="3" y="11" width="2" height="1" class="f"/>
    <rect x="7" y="11" width="2" height="1" class="f"/>
    
    <!-- Tail up -->
    <rect x="10" y="7" width="1" height="1" class="f"/>
    <rect x="11" y="6" width="1" height="1" class="f"/>
    <rect x="12" y="5" width="1" height="1" class="f"/>
  </g>

  <!-- Frame 2: Idle, tail curved -->
  <g id="idle-2" transform="translate(16, 0)">
    <!-- Ears -->
    <rect x="3" y="2" width="1" height="1" class="f"/>
    <rect x="4" y="1" width="1" height="1" class="f"/>
    <rect x="7" y="1" width="1" height="1" class="f"/>
    <rect x="8" y="2" width="1" height="1" class="f"/>
    
    <!-- Head -->
    <rect x="3" y="3" width="1" height="1" class="f"/>
    <rect x="4" y="2" width="1" height="1" class="f"/>
    <rect x="5" y="2" width="1" height="1" class="f"/>
    <rect x="6" y="2" width="1" height="1" class="f"/>
    <rect x="7" y="2" width="1" height="1" class="f"/>
    <rect x="4" y="3" width="4" height="1" class="f"/>
    
    <!-- Eyes -->
    <rect x="4" y="3" width="1" height="1" class="e"/>
    <rect x="7" y="3" width="1" height="1" class="e"/>
    
    <!-- Nose -->
    <rect x="5" y="4" width="2" height="1" class="g"/>
    
    <!-- Body -->
    <rect x="3" y="5" width="6" height="1" class="f"/>
    <rect x="2" y="6" width="8" height="1" class="f"/>
    <rect x="2" y="7" width="8" height="1" class="f"/>
    <rect x="2" y="8" width="8" height="1" class="f"/>
    <rect x="3" y="9" width="6" height="1" class="f"/>
    
    <!-- Legs -->
    <rect x="3" y="10" width="2" height="1" class="f"/>
    <rect x="7" y="10" width="2" height="1" class="f"/>
    <rect x="3" y="11" width="2" height="1" class="f"/>
    <rect x="7" y="11" width="2" height="1" class="f"/>
    
    <!-- Tail curved right -->
    <rect x="10" y="8" width="1" height="1" class="f"/>
    <rect x="11" y="8" width="1" height="1" class="f"/>
    <rect x="12" y="7" width="1" height="1" class="f"/>
  </g>
</svg>
